<svg id="visual" viewBox="0 0 900 600" width="900" height="600" xmlns="http://www.w3.org/2000/svg" xmlns:xlink="http://www.w3.org/1999/xlink" version="1.1"><rect x="0" y="0" width="900" height="600" fill="#ffffff"></rect><g transform="translate(489.7371851786356 313.31010928538524)"><path d="M106.4 -188.2C135.9 -167.4 156.3 -134.7 172.2 -101.3C188.1 -68 199.6 -34 197.2 -1.4C194.8 31.3 178.6 62.5 161.4 93.7C144.3 124.9 126.1 156 99.1 177.5C72 199 36 211 -1.9 214.3C-39.8 217.7 -79.7 212.3 -108 191.5C-136.2 170.7 -153 134.3 -182.9 99.8C-212.8 65.3 -255.9 32.7 -270.8 -8.6C-285.6 -49.8 -272.3 -99.7 -247.5 -143C-222.6 -186.3 -186.3 -223 -143.2 -236C-100 -248.9 -50 -237.9 -5.8 -228C38.5 -218 77 -209 106.4 -188.2" fill="#a62895"></path></g></svg>